Coordinates
version=1
nRows=12
nColumns=33
inDegrees=yes

Units are S.I. units (second, meters, Newtons, ...)
Angles are in degrees.

endheader
time	ground_thorax_rot_x	ground_thorax_rot_y	ground_thorax_rot_z	ground_thorax_tx	ground_thorax_ty	ground_thorax_tz	clav_prot_r	clav_elev_r	scapula_abduction_r	scapula_elevation_r	scapula_upward_rot_r	scapula_winging_r	shoulder_elv_r	plane_of_elev_r	axial_rot_r	elbow_flexion_r	pro_sup_r	wrist_flex_r	wrist_dev_r	clav_prot_l	clav_elev_l	scapula_abduction_l	scapula_elevation_l	scapula_upward_rot_l	scapula_winging_l	shoulder_elv_l	plane_of_elev_l	axial_rot_l	elbow_flexion_l	pro_sup_l	wrist_flex_l	wrist_dev_l
      4.38000000	     38.75511627	     -3.30215898	      1.26340649	     -9.82924692	    811.54557599	     -1.71613164	     11.74132623	     40.63996643	     45.00000000	     38.97571283	     -8.98386663	  -3323.21047229	  -6778.72387923	     30.81535424	     58.54269656	   3610.18895121	    370.91787097	     17.17992568	     11.31001521	      4.78002934	    -45.00000000	    -45.00000000	     45.00000000	    -13.16059353	   2246.35996072	  -3530.97953739	     20.71340879	    -39.49605143	   1806.77551260	     19.36195922	     11.26472969	    -18.99290685
      4.39000000	     38.65266340	     -3.21371307	      1.44043293	     -7.27443299	    809.50950682	     -1.19990705	     11.94767203	     40.51033150	     45.00000000	     38.78030562	     -9.26752896	  -3322.86751507	  -6778.76267885	     30.72595933	     59.10997045	   3610.06192596	    371.36341942	     17.08263428	     11.30591019	      4.81317771	    -45.00000000	    -45.00000000	     45.00000000	    -13.31669222	   2246.09503468	  -3531.13250021	     20.76384249	    -39.22969658	   1806.54465849	     19.69804105	     11.19945776	    -18.91910901
      4.40000000	     38.46717701	     -2.96502094	      1.83895869	     -5.13769456	    807.80074281	     -0.74805317	     11.94270403	     40.07081237	     45.00000000	     38.44183137	     -9.67556349	  -3322.91273602	  -6778.97110733	     30.81775819	     60.07053349	   3609.94766672	    371.70019804	     17.01437080	     11.27294530	      4.86509710	    -45.00000000	    -45.00000000	     45.00000000	    -13.76226811	   2246.06164144	  -3531.25664985	     20.97734014	    -39.07364583	   1806.26515304	     20.31769878	     11.03383008	    -18.77266713
      4.41000000	     38.17334667	     -2.74451032	      2.16037659	     -3.42984849	    806.38832603	     -0.37241318	     12.06552096	     39.38407676	     45.00000000	     37.93652230	     -9.82466882	  -3322.89214861	  -6779.09825741	     30.67815429	     60.88534350	   3609.75287463	    371.99677008	     16.89009720	     11.23502468	      4.67223494	    -45.00000000	    -45.00000000	     45.00000000	    -14.05939988	   2245.89507620	  -3531.03847467	     20.94536542	    -38.80318061	   1806.17632420	     20.94588024	     10.86870880	    -18.67258486
      4.42000000	     38.10983491	     -2.85190489	      2.14581761	     -2.15713351	    805.23213215	     -0.07590688	     11.96676441	     39.39448718	     45.00000000	     37.79362360	     -9.64202816	  -3322.68155556	  -6779.10903591	     30.44810802	     61.67778648	   3609.71587778	    372.35682276	     16.89810198	     11.37279920	      4.65833578	    -45.00000000	    -45.00000000	     45.00000000	    -13.87486562	   2245.68431121	  -3531.12296745	     20.88650012	    -38.51908369	   1805.97331936	     21.61059425	     10.82410331	    -18.64032667
      4.43000000	     37.92861162	     -2.80528943	      2.30241756	     -1.31456254	    804.29089788	      0.14789001	     11.88163692	     39.07889248	     45.00000000	     37.48155636	     -9.72772107	  -3322.46330915	  -6778.92506991	     30.18206634	     62.54858395	   3609.84700258	    372.78080077	     16.97454710	     11.68972317	      4.61959795	    -45.00000000	    -45.00000000	     45.00000000	    -13.50611459	   2245.79248726	  -3531.26010295	     20.79206680	    -38.10114412	   1805.97397252	     22.08982628	     10.68403739	    -18.58094287
      4.44000000	     37.97339213	     -3.02284783	      2.06515248	     -0.88234895	    803.52175504	      0.31294533	     11.84114085	     39.26508637	     45.00000000	     37.49230510	     -9.38811934	  -3322.85515969	  -6779.41072572	     30.34873849	     62.82317895	   3609.60454512	    373.23002519	     16.86836921	     11.35066244	      4.50736628	    -45.00000000	    -45.00000000	     45.00000000	    -13.81177267	   2245.59499575	  -3531.15766290	     21.01335427	    -38.20003881	   1805.86014870	     22.57278039	     10.84252839	    -18.65160670
      4.45000000	     37.91303309	     -3.06621212	      2.19342221	     -0.83555052	    802.88618213	      0.43600218	     11.75144090	     39.13977139	     45.00000000	     37.36398132	     -9.44932209	  -3322.48786287	  -6779.13211560	     29.97410625	     63.57268704	   3609.78959024	    373.90077926	     16.99573131	     11.78910656	      4.49773390	    -45.00000000	    -45.00000000	     45.00000000	    -13.31400291	   2245.73955529	  -3531.44871025	     20.81615941	    -37.68570154	   1805.77840431	     22.83036105	     10.67237453	    -18.56015049
      4.46000000	     38.02882357	     -3.25631046	      2.06258177	     -1.14323569	    802.35231444	      0.53317431	     11.69130039	     39.30345918	     45.00000000	     37.42317869	     -9.26158818	  -3322.76025583	  -6779.40643031	     30.10226200	     63.75628668	   3609.61387525	    374.67467946	     16.96428902	     11.52502683	      4.41029127	    -45.00000000	    -45.00000000	     45.00000000	    -13.65599991	   2245.56252859	  -3531.35579721	     20.92008228	    -37.81694818	   1805.61989727	     23.09049301	     10.85111605	    -18.64023767
      4.47000000	     37.98653296	     -3.29414662	      2.12392471	     -1.77726054	    801.88498666	      0.62006661	     11.72502280	     39.08338292	     45.00000000	     37.28954969	     -9.36815311	  -3322.84166657	  -6779.33210009	     30.03820265	     64.12621558	   3609.71321178	    375.50794170	     17.02757782	     11.64415597	      4.43783040	    -45.00000000	    -45.00000000	     45.00000000	    -13.52655712	   2245.75745369	  -3531.43931593	     20.89015550	    -37.69560568	   1805.54825035	     23.15370290	     10.89523642	    -18.66337250
      4.48000000	     38.00754537	     -3.40312150	      2.09278344	     -2.71347036	    801.45918152	      0.70725679	     11.65332136	     39.32533783	     45.00000000	     37.28962692	     -9.40076851	  -3323.03475126	  -6779.48705421	     30.02561602	     64.28744766	   3609.68458725	    376.35934355	     17.07793789	     11.43204159	      4.39104058	    -45.00000000	    -45.00000000	     45.00000000	    -13.80949842	   2245.74563466	  -3531.28378838	     20.90620872	    -37.95327905	   1805.58033001	     23.18136315	     10.97315161	    -18.79148281
      4.49000000	     38.02127362	     -3.44908321	      2.25983949	     -3.93911930	    801.05263319	      0.80220719	     11.72694286	     39.13683422	     45.00000000	     37.19253834	     -9.64177027	  -3323.01219159	  -6779.34042969	     29.95866498	     64.69755185	   3609.70768525	    377.28754804	     17.12824479	     11.70392988	      4.49421804	    -45.00000000	    -45.00000000	     45.00000000	    -13.65233891	   2246.06213723	  -3531.48133831	     20.83381333	    -38.00698542	   1805.52411934	     23.12008988	     10.89471829	    -18.78214049
